<svg width="194" height="33" viewBox="0 0 194 33" fill="none" xmlns="http://www.w3.org/2000/svg">
<path d="M193.576 13.344C193.576 15.3828 193.589 17.4259 193.568 19.4647C193.559 20.0936 193.498 20.7313 193.372 21.3473C192.93 23.4988 191.629 24.9303 189.534 25.581C187.69 26.1536 185.799 26.2837 183.89 25.8716C182.723 25.62 181.699 25.0865 180.81 24.31C180.186 23.7634 179.773 23.0694 179.622 22.2409C179.539 21.7941 179.635 21.6292 180.06 21.4774C180.19 21.4297 180.333 21.3863 180.472 21.3907C181.266 21.408 182.059 21.4297 182.849 21.4687C183.144 21.4817 183.382 21.6336 183.547 21.8895C183.643 22.037 183.76 22.1671 183.864 22.3103C184.254 22.8525 184.788 23.1648 185.434 23.3036C186.081 23.4424 186.736 23.4815 187.378 23.321C188.562 23.0304 189.299 22.2669 189.599 21.087C189.772 20.4146 189.785 19.7293 189.694 19.0439C189.633 18.6101 189.403 18.5147 189.026 18.7489C188.935 18.8053 188.852 18.866 188.77 18.9354C187.716 19.7726 186.493 20.163 185.174 20.1283C182.706 20.0676 180.797 19.0482 179.717 16.7231C179.348 15.9293 179.179 15.0921 179.053 14.2376C178.754 12.1901 179.04 10.2424 180.086 8.43356C181.005 6.84158 182.372 5.8699 184.189 5.57059C185.152 5.41443 186.133 5.3537 187.065 5.71808C187.551 5.90894 188.002 6.19524 188.458 6.45551C188.653 6.56829 188.813 6.74181 189 6.87628C189.36 7.13221 189.59 7.09751 189.672 6.68975C189.82 5.961 190.306 5.84821 190.917 5.86557C191.36 5.87424 191.798 5.86123 192.24 5.85689C192.383 5.85689 192.522 5.85689 192.665 5.8699C193.438 5.94365 193.572 6.08246 193.576 6.85459C193.581 9.01917 193.576 11.1837 193.576 13.3483C193.576 13.3483 193.576 13.3483 193.581 13.3483L193.576 13.344ZM182.962 12.7107C182.983 13.049 182.992 13.3136 183.014 13.5782C183.092 14.3981 183.343 15.1572 183.803 15.8426C184.224 16.4716 184.81 16.9053 185.556 17.0138C187.473 17.2957 188.852 16.4369 189.468 14.7277C189.82 13.7474 189.846 12.7237 189.651 11.713C189.56 11.2358 189.403 10.7586 189.2 10.3162C188.523 8.85433 187.399 8.45959 186.024 8.53333C184.827 8.5984 183.938 9.184 183.448 10.3292C183.109 11.123 182.94 11.9298 182.962 12.7107Z" fill="#353535"/>
<path d="M10.0994 16.0378C9.14509 16.0378 8.19077 16.0639 7.24078 16.0292C6.7376 16.0118 6.42961 16.2244 6.24742 16.6495C6.02619 17.1657 5.82665 17.6905 5.63145 18.2198C5.44059 18.7316 5.26707 19.2478 5.08922 19.7597C4.9027 20.2932 4.51663 20.5492 3.96572 20.5535C3.11985 20.5622 2.27397 20.5535 1.4281 20.5405C1.30664 20.5405 1.18084 20.5188 1.05938 20.5015C0.786098 20.4624 0.642949 20.2889 0.668976 20.0286C0.695003 19.7684 0.747056 19.5081 0.838151 19.2608C1.79247 16.7102 2.75113 14.1595 3.72281 11.6132C5.02849 8.19937 6.34285 4.7855 7.65722 1.37597C7.68324 1.3109 7.70493 1.24583 7.73096 1.17643C8.00858 0.417307 8.22981 0.248132 9.04966 0.230781C9.93024 0.213429 10.8152 0.217767 11.6957 0.217767C12.4549 0.217767 12.6804 0.395618 12.945 1.09835C14.2117 4.47318 15.4827 7.84367 16.7493 11.2185C17.5995 13.4915 18.4411 15.7645 19.2869 18.0376C19.4908 18.5798 19.7034 19.122 19.8769 19.6729C20.0634 20.2672 19.8855 20.5101 19.2696 20.5231C18.389 20.5448 17.5041 20.5578 16.6235 20.5535C15.8817 20.5492 15.5868 20.3236 15.3352 19.6165C15.0315 18.7707 14.7409 17.9248 14.4416 17.0789C14.1466 16.246 13.8386 16.0291 12.958 16.0248C12.0037 16.0205 11.0537 16.0248 10.0994 16.0248V16.0378ZM10.2816 12.702C10.2816 12.702 10.2816 12.715 10.2816 12.7237C10.3857 12.7237 10.4942 12.7237 10.5983 12.7237C11.1101 12.7107 11.622 12.7237 12.1295 12.676C12.611 12.6326 12.7368 12.4244 12.6501 11.9603C12.6284 11.8562 12.598 11.7564 12.5633 11.6566C12.1946 10.5591 11.8259 9.45734 11.4485 8.35987C11.2403 7.76125 11.032 7.16263 10.7935 6.58136C10.6937 6.33844 10.6373 5.9784 10.2729 6.00443C9.93891 6.03046 9.8695 6.36447 9.76974 6.6204C9.53549 7.2277 9.31426 7.83933 9.09303 8.45096C8.71998 9.49204 8.33825 10.5331 7.99557 11.5872C7.72662 12.4201 7.88712 12.6456 8.75035 12.6977C9.25787 12.7281 9.77407 12.702 10.2859 12.702H10.2816Z" fill="#353535"/>
<path d="M98.7861 15.782C98.7861 12.9147 98.7861 10.0474 98.7861 7.18006C98.7861 7.04125 98.7861 6.8981 98.7861 6.75929C98.8078 6.21706 99.016 5.9698 99.5496 5.95245C100.291 5.92642 101.033 5.94378 101.775 5.94378C102.174 5.94378 102.447 6.12596 102.569 6.51203C102.599 6.6118 102.647 6.70723 102.673 6.81134C102.747 7.06294 102.929 7.08896 103.128 7.01088C103.271 6.95449 103.406 6.86339 103.532 6.76796C106.516 4.47325 110.824 5.36684 112.641 8.67661C113.526 10.2903 113.886 12.0297 113.743 13.8646C113.691 14.511 113.63 15.166 113.487 15.795C113.196 17.105 112.624 18.2675 111.656 19.2392C110.546 20.354 109.193 20.8399 107.661 20.9266C106.239 21.0047 104.928 20.6664 103.796 19.7728C103.254 19.3433 102.911 19.2045 102.799 20.2456C102.777 20.4538 102.799 20.6664 102.799 20.8789C102.799 22.1629 102.812 23.4469 102.781 24.7309C102.76 25.5724 102.577 25.746 101.732 25.7676C101.024 25.785 100.317 25.7676 99.6147 25.7329C99.0291 25.7069 98.8686 25.5421 98.8122 24.9695C98.7905 24.7613 98.7905 24.5487 98.7905 24.3362C98.7905 21.4862 98.7905 18.6363 98.7905 15.7863L98.7861 15.782ZM102.66 13.0969C102.612 14.2247 102.794 15.3005 103.337 16.3025C103.801 17.1571 104.538 17.6906 105.475 17.8858C107.319 18.2719 108.85 17.387 109.418 15.5607C109.93 13.921 109.9 12.277 109.266 10.6547C108.525 8.75469 106.577 8.28186 105.206 8.67227C104.256 8.94121 103.631 9.56152 103.224 10.4378C102.829 11.2836 102.699 12.1816 102.66 13.1012V13.0969Z" fill="#353535"/>
<path d="M136.681 14.1641C135.324 14.1641 133.962 14.1641 132.604 14.1641C131.537 14.1641 131.237 14.5718 131.55 15.5912C131.958 16.9403 132.947 17.7471 134.352 17.8772C135.289 17.964 136.191 17.8425 136.998 17.3307C137.293 17.1441 137.584 16.9272 137.805 16.6626C138.213 16.1768 138.69 15.9426 139.328 15.999C139.662 16.0293 140 15.999 140.334 15.999C141.496 15.9903 141.692 16.3113 141.167 17.361C140.26 19.1656 138.785 20.25 136.829 20.6751C134.834 21.1132 132.881 20.9441 131.055 20.0158C129.541 19.2436 128.466 18.0421 127.884 16.4197C127.377 15.0013 127.203 13.5394 127.411 12.0559C127.832 9.10181 129.385 6.91554 132.226 5.90049C134.881 4.95051 137.423 5.3626 139.614 7.23654C140.694 8.1605 141.258 9.41847 141.653 10.7502C141.891 11.544 142.017 12.3639 142.004 13.1967C141.995 13.8214 141.809 14.0469 141.18 14.138C141.006 14.1641 140.828 14.1597 140.651 14.1597C139.328 14.1597 138.004 14.1597 136.677 14.1597L136.681 14.1641ZM134.651 11.6308C135.302 11.6308 135.957 11.6308 136.608 11.6308C136.751 11.6308 136.89 11.6308 137.033 11.6308C137.718 11.5961 137.896 11.3401 137.718 10.6634C137.592 10.1732 137.354 9.75248 136.998 9.39678C135.961 8.34702 134.179 8.16917 132.842 8.99336C132.27 9.34472 131.836 9.82622 131.611 10.4639C131.346 11.2143 131.632 11.6221 132.426 11.6308C133.168 11.6438 133.91 11.6308 134.647 11.6308H134.651Z" fill="#353535"/>
<path d="M78.6847 14.1639C77.3791 14.1639 76.0734 14.1639 74.7677 14.1639C74.6462 14.1639 74.5204 14.1596 74.399 14.1639C73.7787 14.1986 73.475 14.5673 73.5618 15.1746C73.7526 16.5497 74.7937 17.6255 76.1905 17.838C77.2489 17.9985 78.277 17.8814 79.1923 17.2785C79.5133 17.0702 79.7996 16.797 80.0555 16.5107C80.3895 16.142 80.7712 15.9728 81.2701 16.0031C81.8514 16.0378 82.4326 16.0075 83.0139 16.0552C83.5041 16.0942 83.6169 16.2808 83.5041 16.7666C83.4694 16.9184 83.413 17.0702 83.3436 17.2134C82.45 18.9962 81.0749 20.1935 79.1012 20.649C77.4875 21.0177 75.8782 21.0003 74.2992 20.4841C71.7616 19.6513 70.2607 17.8901 69.6707 15.3221C69.3107 13.7431 69.3541 12.1728 69.8269 10.6329C70.3908 8.78934 71.536 7.37087 73.2147 6.41654C74.9325 5.44053 76.7891 5.21063 78.6934 5.66176C80.3548 6.0565 81.7299 6.91973 82.6929 8.39459C83.6385 9.84343 84.0333 11.4397 84.1244 13.1315C84.1591 13.7822 83.9379 14.0294 83.2959 14.1292C83.0529 14.1682 82.8057 14.1682 82.5584 14.1682C81.2701 14.1682 79.9818 14.1682 78.6934 14.1682L78.6847 14.1639ZM76.711 11.6306C77.1708 11.6306 77.6307 11.6306 78.0861 11.6306C78.4939 11.6306 78.9016 11.648 79.3051 11.6133C79.7692 11.5742 80.0078 11.2315 79.8777 10.8021C79.5176 9.59183 78.7585 8.80235 77.4788 8.54642C76.7587 8.39893 76.0647 8.4987 75.401 8.74162C74.5161 9.06262 73.9262 9.72631 73.6876 10.6199C73.4794 11.4007 73.7526 11.648 74.4337 11.635C75.1928 11.6219 75.9519 11.635 76.711 11.635V11.6306Z" fill="#353535"/>
<path d="M162.465 13.214C162.465 11.3314 162.465 9.44875 162.465 7.56613C162.465 7.24947 162.465 6.9328 162.483 6.61614C162.513 6.15633 162.669 5.9351 163.112 5.91342C163.94 5.87004 164.769 5.87871 165.597 5.88739C165.888 5.88739 166.083 6.07825 166.179 6.35154C166.231 6.49902 166.257 6.65518 166.296 6.81135C166.387 7.16705 166.53 7.24513 166.873 7.08897C167.046 7.00655 167.207 6.89376 167.354 6.76797C168.369 5.91775 169.54 5.52301 170.863 5.51C171.77 5.50132 172.659 5.5447 173.51 5.90908C174.698 6.42094 175.514 7.27116 175.878 8.51177C176.112 9.3056 176.251 10.1168 176.251 10.954C176.242 13.7866 176.251 16.6192 176.247 19.4518C176.247 20.3887 176.064 20.5623 175.136 20.5579C174.555 20.5579 173.974 20.5579 173.392 20.5579C173.271 20.5579 173.145 20.5449 173.024 20.5276C172.473 20.4495 172.295 20.2499 172.286 19.6904C172.273 19.057 172.269 18.4237 172.265 17.7904C172.252 15.8384 172.256 13.8863 172.221 11.9343C172.213 11.4138 172.139 10.8802 172.009 10.377C171.761 9.44007 171.111 8.89784 170.156 8.70698C168.799 8.43803 167.424 9.07135 166.89 10.2686C166.729 10.6286 166.643 11.0451 166.617 11.4398C166.539 12.5633 166.482 13.6868 166.465 14.8103C166.439 16.3589 166.448 17.9075 166.465 19.4561C166.474 20.1068 166.365 20.5362 165.346 20.5709C164.73 20.5926 164.114 20.5709 163.493 20.5623C163.355 20.5623 163.211 20.5362 163.073 20.5059C162.652 20.4104 162.509 20.2499 162.491 19.8162C162.478 19.4127 162.478 19.005 162.478 18.6016C162.478 16.8057 162.478 15.0142 162.478 13.2183L162.465 13.214Z" fill="#353535"/>
<path d="M56.3666 15.1401C56.3666 16.4415 56.3709 17.7428 56.3623 19.0442C56.3623 19.3782 56.3189 19.7122 56.2668 20.0375C56.2278 20.3021 56.0673 20.4843 55.7767 20.5103C55.512 20.532 55.2518 20.5667 54.9872 20.5667C54.458 20.5667 53.9287 20.5494 53.3995 20.5407C52.6144 20.532 52.3541 20.2848 52.3541 19.491C52.3541 17.2743 52.3758 15.0577 52.3585 12.8411C52.3585 12.173 52.289 11.505 52.2023 10.8457C51.9767 9.1409 50.8012 8.56397 49.4261 8.66374C47.9859 8.76785 46.9231 9.44455 46.7279 11.1146C46.6195 12.0386 46.5588 12.9712 46.5458 13.8995C46.5197 15.7474 46.5154 17.5953 46.5458 19.4432C46.5588 20.2804 46.0729 20.5711 45.4093 20.5581C44.7933 20.545 44.173 20.5624 43.557 20.545C42.7371 20.5234 42.5289 20.2978 42.5333 19.4866C42.555 17.0791 42.5853 14.6673 42.5983 12.2598C42.607 10.4639 42.5897 8.67242 42.5897 6.87656C42.5897 6.73775 42.5897 6.5946 42.6157 6.45579C42.6851 6.10876 42.8629 5.90055 43.2143 5.89187C44.0428 5.87452 44.8714 5.90488 45.6999 5.9179C46.0079 5.92223 46.1814 6.10876 46.2681 6.38638C46.3115 6.52085 46.3375 6.65966 46.3722 6.79414C46.4677 7.16719 46.6282 7.25395 46.9795 7.08911C47.1357 7.01537 47.2789 6.90692 47.4133 6.79414C48.4327 5.9179 49.6126 5.50146 50.9617 5.50146C51.89 5.50146 52.7966 5.56219 53.6555 5.93959C54.9611 6.51218 55.7897 7.5012 56.063 8.88497C56.2365 9.77856 56.3189 10.6938 56.3579 11.6048C56.4056 12.7803 56.3709 13.9602 56.3709 15.1401H56.3666Z" fill="#353535"/>
<path d="M60.6437 13.652C60.6437 12.4374 60.6437 11.2228 60.6437 10.0082C60.6437 9.80002 60.635 9.58313 60.5917 9.37925C60.4659 8.7546 60.2013 8.54205 59.5723 8.53771C59.3771 8.53771 59.1819 8.5594 58.991 8.54205C58.4748 8.50301 58.2319 8.32082 58.1885 7.80895C58.1495 7.32312 58.2015 6.8286 58.2449 6.33843C58.2666 6.07816 58.4791 5.94803 58.7221 5.91766C59.0344 5.88296 59.3554 5.87428 59.672 5.86127C60.3748 5.82657 60.5396 5.70077 60.6133 4.9937C60.6611 4.50353 60.6437 4.00902 60.6481 3.51884C60.6524 3.09807 60.6394 2.67297 60.6524 2.2522C60.6697 1.77504 60.943 1.50175 61.4158 1.49308C62.2097 1.4844 63.0035 1.48006 63.7973 1.49308C64.4393 1.50609 64.6172 1.6796 64.6345 2.31726C64.6519 3.03734 64.6389 3.76176 64.6389 4.48184C64.6389 4.5686 64.6389 4.65969 64.6389 4.74645C64.6692 5.62703 64.8688 5.8309 65.7407 5.85693C66.1614 5.86994 66.5865 5.89163 67.0073 5.91766C67.3196 5.93501 67.5062 6.1172 67.5278 6.41651C67.5625 6.90669 67.6016 7.39686 67.5756 7.88703C67.5539 8.27744 67.3283 8.46397 66.9032 8.49867C66.4824 8.53337 66.0573 8.51602 65.6322 8.52903C64.9685 8.55072 64.7256 8.77629 64.6519 9.44431C64.6345 9.58313 64.6345 9.72627 64.6345 9.86508C64.6345 11.713 64.6258 13.5609 64.6389 15.4088C64.6389 15.8122 64.6996 16.2157 64.7646 16.6104C64.8341 17.0572 65.1247 17.3392 65.5585 17.4303C65.9359 17.5083 66.3263 17.5344 66.708 17.5647C67.376 17.6211 67.5799 17.8207 67.5972 18.4843C67.6103 18.9225 67.6103 19.3649 67.5972 19.803C67.5799 20.3236 67.389 20.5405 66.8728 20.6012C65.6018 20.7444 64.3265 20.7617 63.0816 20.4624C61.6588 20.1197 60.7825 19.3389 60.6654 17.5994C60.6003 16.6711 60.648 15.7342 60.6437 14.8015C60.6437 14.4155 60.6437 14.0294 60.6437 13.639V13.652Z" fill="#353535"/>
<path d="M145.552 13.5741C145.552 12.2207 145.557 10.8673 145.552 9.50952C145.548 8.83716 145.253 8.55086 144.585 8.53351C144.372 8.52917 144.16 8.5552 143.952 8.54218C143.444 8.50314 143.21 8.3036 143.162 7.79608C143.123 7.37965 143.114 6.9502 143.149 6.53377C143.188 6.0783 143.327 5.96551 143.782 5.90478C144.043 5.87008 144.312 5.87008 144.576 5.85707C145.335 5.81803 145.526 5.64885 145.552 4.91142C145.578 4.20869 145.565 3.50597 145.578 2.80324C145.578 2.55598 145.578 2.30872 145.617 2.06581C145.674 1.7101 145.904 1.49755 146.264 1.49321C147.127 1.48454 147.994 1.48454 148.858 1.50623C149.37 1.51924 149.53 1.65371 149.573 2.16124C149.621 2.66443 149.582 3.17629 149.591 3.68815C149.599 4.17833 149.591 4.67284 149.634 5.15868C149.673 5.5968 149.877 5.78333 150.315 5.83538C150.628 5.87442 150.949 5.86141 151.265 5.87008C151.46 5.87442 151.656 5.87008 151.846 5.89177C152.358 5.96551 152.48 6.08697 152.506 6.60317C152.528 7.03696 152.558 7.47942 152.506 7.9132C152.458 8.34264 152.315 8.44675 151.881 8.49447C151.512 8.53351 151.139 8.51616 150.771 8.53351C150.575 8.54218 150.38 8.55954 150.194 8.59858C149.842 8.67232 149.652 8.90656 149.621 9.26226C149.612 9.38372 149.612 9.50952 149.612 9.63098C149.612 11.7088 149.612 13.7823 149.612 15.8601C149.612 15.9469 149.612 16.038 149.612 16.1247C149.652 17.0313 150.12 17.4955 151.04 17.5562C151.356 17.5779 151.673 17.5952 151.99 17.6299C152.263 17.6603 152.432 17.8251 152.497 18.0941C152.662 18.7968 152.571 19.4952 152.454 20.1893C152.432 20.3151 152.267 20.4278 152.154 20.5276C152.107 20.571 152.024 20.5883 151.955 20.5927C150.458 20.7315 148.957 20.8182 147.509 20.2934C146.294 19.8552 145.674 18.94 145.626 17.6863C145.578 16.3156 145.613 14.9405 145.613 13.5697C145.591 13.5697 145.574 13.5697 145.552 13.5697V13.5741Z" fill="#353535"/>
<path d="M38.9198 10.5289C38.9198 13.4656 38.9198 16.4023 38.9198 19.3434C38.9198 19.4996 38.9242 19.6601 38.9155 19.8162C38.8851 20.2673 38.7376 20.4365 38.2909 20.5363C38.1694 20.5623 38.0479 20.5797 37.9265 20.5797C37.1674 20.5797 36.4126 20.571 35.6535 20.5623C35.584 20.5623 35.5103 20.558 35.4409 20.5493C34.7252 20.4799 34.5994 20.3584 34.5169 19.6557C34.4866 19.3954 34.4822 19.1308 34.4822 18.8662C34.4822 13.0275 34.4822 7.18446 34.4822 1.34574C34.4822 0.512881 34.7295 0.269963 35.5537 0.265625C36.2955 0.265625 37.0372 0.265625 37.779 0.265625C38.6509 0.265625 38.9155 0.521557 38.9198 1.40214C38.9285 4.44729 38.9198 7.48811 38.9198 10.5333V10.5289Z" fill="#353535"/>
<path d="M116.832 13.1098C116.832 11.1577 116.832 9.20138 116.832 7.24936C116.832 7.1279 116.832 7.0021 116.832 6.88064C116.849 6.1649 117.113 5.88728 117.825 5.86993C118.48 5.85258 119.131 5.85258 119.786 5.86993C120.306 5.8786 120.51 6.07381 120.597 6.58567C120.636 6.82859 120.653 7.07584 120.718 7.31442C120.818 7.67446 121.07 7.74387 121.339 7.47926C121.868 6.95872 122.397 6.43818 123.065 6.0955C123.781 5.72678 124.531 5.49254 125.347 5.5229C126.036 5.54893 126.301 5.80486 126.323 6.49458C126.34 7.14525 126.34 7.79592 126.331 8.4466C126.323 8.9628 126.114 9.16668 125.585 9.19704C125.073 9.22741 124.557 9.20572 124.054 9.27512C122.523 9.48334 121.594 10.4116 121.135 11.8388C120.835 12.7714 120.844 13.7431 120.853 14.7148C120.866 16.194 120.883 17.6688 120.87 19.148C120.87 19.4777 120.779 19.8074 120.71 20.1327C120.662 20.3583 120.506 20.4927 120.258 20.5101C120.029 20.5231 119.803 20.5622 119.573 20.5622C118.992 20.5622 118.41 20.5535 117.825 20.5491C117.109 20.5405 116.918 20.3669 116.849 19.6599C116.827 19.4517 116.832 19.2391 116.832 19.0266C116.832 17.0572 116.832 15.0835 116.832 13.1141V13.1098Z" fill="#353535"/>
<path d="M91.2947 7.79591C91.7198 7.38816 92.0408 7.06716 92.3791 6.76351C93.2684 5.97403 94.3095 5.54892 95.5024 5.51855C95.6238 5.51855 95.7496 5.51855 95.8711 5.53591C96.2745 5.60097 96.5261 5.81353 96.5565 6.22128C96.6042 6.97606 96.6259 7.73085 96.6085 8.48563C96.5955 8.93676 96.3049 9.17101 95.8407 9.19269C95.3505 9.21872 94.8517 9.19703 94.3615 9.25776C92.7175 9.45296 91.7718 10.4637 91.3684 11.9819C91.1819 12.6846 91.1428 13.4394 91.1255 14.1769C91.0908 15.8469 91.1168 17.5213 91.1125 19.1914C91.1125 20.3973 90.8999 20.5882 89.6767 20.5361C89.2906 20.5188 88.9002 20.5361 88.5141 20.5448C88.41 20.5448 88.3016 20.5621 88.1975 20.5621C87.3863 20.5621 87.152 20.3453 87.1173 19.5471C87.1043 19.2825 87.1087 19.0179 87.1087 18.7576C87.1087 14.923 87.1087 11.0883 87.1087 7.25369C87.1087 7.05848 87.1087 6.86762 87.1217 6.67242C87.1607 6.19959 87.3646 5.9827 87.8418 5.90896C87.9979 5.88293 88.1584 5.87859 88.3146 5.87859C88.8091 5.87426 89.3036 5.86992 89.7981 5.87859C90.631 5.88293 90.8262 6.05645 90.9216 6.86762C90.9346 6.97173 90.9216 7.08885 90.9607 7.17994C91.0387 7.36213 91.1472 7.53564 91.2947 7.80459V7.79591Z" fill="#353535"/>
<path d="M26.3835 13.2965C26.3835 14.9492 26.3878 16.6019 26.3835 18.2589C26.3835 18.8229 26.3271 19.3824 26.3184 19.9464C26.3141 20.2196 26.1666 20.3758 25.9324 20.4452C25.7328 20.5016 25.5159 20.5493 25.3077 20.545C24.5486 20.545 23.7938 20.5276 23.0347 20.4929C22.6356 20.4756 22.4795 20.3194 22.4057 19.916C22.3667 19.6904 22.345 19.4605 22.345 19.2349C22.3363 15.2051 22.332 11.1796 22.332 7.14976C22.332 6.05229 22.5315 5.86576 23.6333 5.86576C24.1278 5.86576 24.6223 5.85275 25.1169 5.85709C25.3294 5.85709 25.542 5.87444 25.7458 5.90914C26.1536 5.98288 26.2751 6.11302 26.3054 6.5468C26.3445 7.07168 26.3792 7.60089 26.3792 8.12577C26.3878 9.84789 26.3792 11.5743 26.3792 13.2965H26.3835Z" fill="#353535"/>
<path d="M154.631 13.1663C154.631 11.1622 154.631 9.15813 154.631 7.15406C154.631 6.97621 154.631 6.80269 154.644 6.62484C154.683 6.16937 154.831 5.98718 155.278 5.92211C155.625 5.87006 155.98 5.88307 156.332 5.87874C156.844 5.87006 157.355 5.85271 157.867 5.87874C158.366 5.90476 158.509 6.05659 158.6 6.54242C158.631 6.71594 158.644 6.89379 158.644 7.0673C158.644 11.0928 158.644 15.1183 158.64 19.1438C158.64 19.3737 158.631 19.5993 158.609 19.8292C158.566 20.276 158.449 20.4538 158.006 20.4929C157.308 20.5536 156.601 20.5406 155.898 20.5536C155.724 20.5536 155.547 20.5232 155.373 20.5016C154.918 20.4538 154.718 20.2716 154.657 19.8118C154.627 19.6036 154.636 19.3911 154.636 19.1785C154.636 17.1744 154.636 15.1704 154.636 13.1663H154.631Z" fill="#353535"/>
<path d="M132.816 30.3527C133.411 31.1422 134.148 31.7495 134.747 32.6301C134.222 32.6301 133.806 32.6517 133.393 32.617C133.263 32.6084 133.124 32.4696 133.025 32.3568C132.6 31.8883 132.166 31.4241 131.771 30.9253C131.515 30.6043 131.233 30.4438 130.821 30.4958C130.652 30.5175 130.478 30.4958 130.235 30.4958C130.222 31.2246 130.214 31.897 130.201 32.6084H128.956V26.1493C129.034 26.132 129.112 26.0973 129.194 26.0973C130.183 26.0973 131.172 26.0756 132.161 26.0973C133.515 26.132 134.4 27.0776 134.352 28.4224C134.326 29.1685 133.97 29.7237 133.32 30.0924C133.172 30.1748 133.016 30.2486 132.821 30.3484L132.816 30.3527ZM130.248 29.3029C130.825 29.3029 131.337 29.3116 131.845 29.2986C132.053 29.2943 132.266 29.2552 132.465 29.1902C132.908 29.047 133.129 28.6696 133.068 28.2098C132.994 27.6459 132.595 27.2902 131.979 27.2642C131.576 27.2468 131.168 27.2555 130.76 27.2642C130.591 27.2642 130.422 27.2815 130.244 27.2945V29.3116L130.248 29.3029Z" fill="#353535"/>
<path d="M121.351 27.2902V28.7564H124.739C124.852 29.1901 124.848 29.5632 124.744 29.9753H121.386C121.282 30.4568 121.317 30.8992 121.36 31.4198H124.917V32.6127H120.046V26.1233H124.926C124.939 26.3185 124.952 26.505 124.956 26.6915C124.961 26.8651 124.956 27.0386 124.956 27.2555C124.34 27.4116 123.746 27.2685 123.16 27.2815C122.579 27.2988 121.998 27.2815 121.347 27.2815L121.351 27.2902Z" fill="#353535"/>
<path d="M162.4 26.1277H167.194V27.3336H163.671V28.7607C164.786 28.7954 165.892 28.7607 167.003 28.7824C167.168 29.1642 167.098 29.5199 167.042 29.9493C165.931 30.01 164.825 29.945 163.68 29.9884V31.4242H167.259V32.6214H162.405V26.132L162.4 26.1277Z" fill="#353535"/>
<path d="M115.977 27.1385C115.665 27.351 115.378 27.5462 115.079 27.7501C114.953 27.646 114.849 27.5549 114.741 27.4682C114.094 26.9606 113.387 26.9303 112.645 27.2209C112.372 27.3293 112.225 27.5289 112.216 27.8239C112.207 28.1145 112.377 28.2967 112.619 28.3878C112.932 28.5006 113.261 28.5613 113.587 28.6437C114.116 28.7782 114.658 28.8649 115.166 29.0515C115.886 29.3204 116.229 29.9017 116.246 30.6521C116.268 31.4199 115.951 32.0359 115.248 32.3786C114.142 32.9165 112.997 32.9208 111.865 32.4567C111.318 32.2311 110.997 31.8667 110.633 31.19C110.932 30.9818 111.244 30.7692 111.57 30.5393C112.134 31.4546 112.953 31.7409 113.943 31.6021C114.181 31.5674 114.428 31.485 114.632 31.3592C115.127 31.0642 115.127 30.4396 114.632 30.1576C114.394 30.0231 114.107 29.9581 113.838 29.8887C113.244 29.7368 112.628 29.6371 112.047 29.4462C111.44 29.2467 111.049 28.8129 110.958 28.1449C110.845 27.3077 111.153 26.6396 111.917 26.2666C112.94 25.7634 113.995 25.7721 115.04 26.2145C115.456 26.388 115.695 26.6483 115.973 27.1341L115.977 27.1385Z" fill="#353535"/>
<path d="M170.707 31.2074C170.811 31.1293 170.89 31.0599 170.972 31.0035C171.158 30.8734 171.349 30.7519 171.579 30.6001C171.709 30.7346 171.835 30.8517 171.944 30.9775C172.668 31.8104 173.839 31.7279 174.538 31.446C174.811 31.3375 174.997 31.1336 175.006 30.804C175.015 30.4569 174.863 30.2184 174.551 30.1056C174.186 29.9798 173.809 29.8887 173.436 29.7933C172.959 29.6675 172.46 29.5981 172.009 29.4159C170.703 28.904 170.794 27.2426 171.492 26.5963C172.477 25.6853 174.971 25.5682 175.943 26.9346C175.973 26.978 175.991 27.0257 176.047 27.1342C175.913 27.2296 175.778 27.325 175.644 27.4205C175.501 27.5202 175.353 27.6157 175.175 27.7371C175.032 27.6374 174.898 27.5376 174.759 27.4378C174.256 27.0821 173.7 26.9607 173.102 27.0951C172.92 27.1385 172.733 27.2209 172.577 27.3337C172.108 27.6677 172.156 28.1796 172.69 28.3921C172.998 28.5136 173.336 28.5613 173.657 28.6437C174.169 28.7782 174.689 28.878 175.184 29.0558C175.926 29.3248 176.299 29.906 176.312 30.6825C176.329 31.4763 175.956 32.0966 175.24 32.422C174.108 32.9382 172.946 32.9295 171.809 32.396C171.362 32.1834 171.028 31.8017 170.716 31.2074H170.707Z" fill="#353535"/>
<path d="M158.609 27.1081C158.331 27.3597 158.076 27.5896 157.785 27.8542C157.121 27.3119 156.384 27.095 155.56 27.2729C155.1 27.3727 154.705 27.5982 154.414 27.98C153.755 28.8475 153.807 30.1923 154.523 30.9514C155.334 31.8103 156.484 31.7973 157.828 30.908C158.093 31.1726 158.362 31.4415 158.626 31.7062C157.872 32.8991 155.152 33.1767 153.794 31.9881C152.41 30.7822 152.35 28.2142 153.686 26.9042C154.948 25.6722 157.546 25.6375 158.609 27.1081Z" fill="#353535"/>
<path d="M144.038 26.1754C143.986 26.3315 143.939 26.4964 143.874 26.6569C143.101 28.5221 142.321 30.3874 141.562 32.257C141.444 32.552 141.284 32.6691 140.972 32.6431C140.711 32.6214 140.447 32.6387 140.143 32.6387C139.249 30.4785 138.356 28.3269 137.445 26.1276H138.829C139.471 27.6589 140.017 29.2812 140.755 30.9123C140.854 30.7431 140.92 30.665 140.954 30.5739C141.483 29.2335 142.004 27.8931 142.529 26.5528C142.645 26.2549 142.859 26.106 143.171 26.106C143.418 26.106 143.665 26.106 143.913 26.1146C143.943 26.1146 143.973 26.1407 144.043 26.1754H144.038Z" fill="#353535"/>
<path d="M24.3447 3.49285C23.924 3.49285 23.4988 3.5102 23.0781 3.48851C22.5879 3.46249 22.4274 3.33669 22.397 2.86387C22.3537 2.21753 22.345 1.56686 22.3797 0.924857C22.4014 0.469385 22.6009 0.274183 23.0477 0.261169C23.8719 0.23948 24.7048 0.230804 25.529 0.282858C26.1753 0.321899 26.3184 0.495412 26.3575 1.13741C26.3878 1.62758 26.3965 2.1221 26.3705 2.60793C26.3358 3.28897 26.1363 3.47116 25.4595 3.49285C25.0908 3.50586 24.7221 3.49285 24.3491 3.49285H24.3447Z" fill="#353535"/>
<path d="M156.605 3.49288C156.184 3.49288 155.759 3.50589 155.339 3.49288C154.926 3.47553 154.723 3.33672 154.692 2.93764C154.64 2.23925 154.64 1.53652 154.666 0.833793C154.679 0.49978 154.944 0.278551 155.269 0.274213C156.202 0.269875 157.134 0.282888 158.063 0.334942C158.44 0.356632 158.601 0.569185 158.622 0.981279C158.653 1.61026 158.631 2.24359 158.64 2.87691C158.644 3.20225 158.462 3.36275 158.18 3.43215C158.011 3.47553 157.833 3.49288 157.659 3.50156C157.308 3.51023 156.957 3.50156 156.601 3.50156V3.49288H156.605Z" fill="#353535"/>
<path d="M148.853 32.6213H147.6V26.1276C147.773 26.1189 147.912 26.1059 148.051 26.1016C148.294 26.1016 148.541 26.1016 148.858 26.1016C148.875 28.2965 148.879 30.4437 148.858 32.6213H148.853Z" fill="#353535"/>
</svg>
